<?xml version="1.0" encoding="UTF-8" standalone="no"?>
<!-- Created with Inkscape (http://www.inkscape.org/) -->

<svg
   width="300mm"
   height="300mm"
   viewBox="0 0 300 300"
   version="1.1"
   id="svg1"
   inkscape:version="1.3.2 (091e20e, 2023-11-25, custom)"
   sodipodi:docname="voxov_logo_300x300.svg"
   xmlns:inkscape="http://www.inkscape.org/namespaces/inkscape"
   xmlns:sodipodi="http://sodipodi.sourceforge.net/DTD/sodipodi-0.dtd"
   xmlns="http://www.w3.org/2000/svg"
   xmlns:svg="http://www.w3.org/2000/svg">
  <sodipodi:namedview
     id="namedview1"
     pagecolor="#ffffff"
     bordercolor="#000000"
     borderopacity="0.25"
     inkscape:showpageshadow="2"
     inkscape:pageopacity="0.0"
     inkscape:pagecheckerboard="0"
     inkscape:deskcolor="#d1d1d1"
     inkscape:document-units="mm"
     inkscape:zoom="0.70710678"
     inkscape:cx="444.77016"
     inkscape:cy="586.89863"
     inkscape:window-width="1278"
     inkscape:window-height="1360"
     inkscape:window-x="1273"
     inkscape:window-y="0"
     inkscape:window-maximized="0"
     inkscape:current-layer="layer1" />
  <defs
     id="defs1" />
  <g
     inkscape:label="Layer 1"
     inkscape:groupmode="layer"
     id="layer1">
    <path
       d="M 150.00008,35 A 75,75 0 0 0 74.999996,110.00008 75,75 0 0 0 150.00008,185.00015 75,75 0 0 0 225.00015,110.00008 75,75 0 0 0 150.00008,35 Z m 0,5.000212 a 70,70 0 0 1 69.99986,69.999868 70,70 0 0 1 -69.99986,69.99986 70,70 0 0 1 -69.999872,-69.99986 70,70 0 0 1 69.999872,-69.999868 z"
       style="fill:#000000;fill-opacity:1;stroke-width:0.347188"
       id="path25" />
    <rect
       style="fill:#000000;fill-opacity:1;stroke-width:0.284964"
       id="rect26"
       width="145"
       height="5"
       x="111.34773"
       y="-30.784267"
       transform="rotate(45)" />
    <rect
       style="fill:#000000;fill-opacity:1;stroke-width:0.284964"
       id="rect26-0"
       width="145"
       height="5"
       x="-44.215733"
       y="181.34773"
       transform="rotate(-45)" />
    <rect
       style="fill:#000000;fill-opacity:1;stroke-width:0.284964"
       id="rect26-7"
       width="145"
       height="5"
       x="159.80934"
       y="87.678032"
       transform="rotate(45)" />
    <rect
       style="fill:#000000;fill-opacity:1;stroke-width:0.284964"
       id="rect26-0-7"
       width="145"
       height="5"
       x="-92.678169"
       y="299.8092"
       transform="rotate(-45)" />
  </g>
</svg>
